<?xml version="1.0" encoding="UTF-8"?>
<svg id="Layer_1" data-name="Layer 1" xmlns="http://www.w3.org/2000/svg" viewBox="0 0 600 400">
  <defs>
    <style>
      .cls-1 {
        stroke-width: .1px;
      }

      .cls-1, .cls-2, .cls-3, .cls-4 {
        fill: none;
        stroke: #fff;
        stroke-miterlimit: 10;
      }

      .cls-2 {
        stroke-width: .19px;
      }

      .cls-3 {
        stroke-width: .23px;
      }

      .cls-4 {
        stroke-width: .27px;
      }

      .cls-5, .cls-6 {
        stroke-width: 0px;
      }

      .cls-6 {
        fill: #fff;
      }
    </style>
  </defs>
  <rect class="cls-5" width="600" height="400"/>
  <polygon class="cls-6" points="149.69 27.56 146.97 27.23 147.85 28.06 147.52 29.23 149.69 27.56"/>
  <g>
    <circle class="cls-3" cx="323.46" cy="165.23" r="82.42"/>
    <g>
      <path class="cls-6" d="m275.83,85.37c-8.54,4.01-16.41,9.52-23.29,16.4-15.59,15.59-24.18,36.32-24.18,58.36h.23c0-21.99,8.56-42.65,24.11-58.2,6.86-6.86,14.72-12.36,23.25-16.36-.05-.06-.09-.13-.13-.19Z"/>
      <polygon class="cls-6" points="274.94 85.02 275.88 85.48 275.89 86.52 277.25 84.61 274.94 85.02"/>
    </g>
    <g>
      <path class="cls-6" d="m295.6,69.89c-9.34,1.34-18.48,4.31-27.06,8.88-19.46,10.36-33.73,27.67-40.17,48.76l.22.07c6.42-21.03,20.65-38.29,40.06-48.62,8.57-4.56,17.69-7.52,27.02-8.86-.03-.07-.05-.15-.07-.22Z"/>
      <polygon class="cls-6" points="297.18 69.58 294.85 69.3 295.61 70.01 295.32 71.01 297.18 69.58"/>
    </g>
    <g>
      <path class="cls-6" d="m290.28,81.3c8.58-3.93,17.87-6.38,27.56-7.18,21.97-1.83,43.34,5,60.17,19.25l-.15.18c-16.78-14.2-38.09-21.02-60-19.19-9.67.81-18.94,3.25-27.51,7.18-.02-.08-.04-.15-.06-.22Z"/>
      <polygon class="cls-6" points="290.33 81.41 290.58 80.4 288.78 81.9 291.11 82.09 290.33 81.41"/>
    </g>
    <g>
      <path class="cls-6" d="m274.66,243.13c-8.28-4.53-15.8-10.51-22.24-17.79-14.61-16.51-21.91-37.73-20.57-59.73h.23c-1.34,21.96,5.94,43.11,20.51,59.58,6.43,7.27,13.94,13.24,22.21,17.75-.05.06-.1.12-.14.19Z"/>
      <polygon class="cls-6" points="274.79 241.99 274.71 243.02 273.75 243.42 276.03 243.97 274.79 241.99"/>
    </g>
    <g>
      <path class="cls-6" d="m420.36,137.17c-1.77-9.27-5.16-18.26-10.11-26.62-11.24-18.97-29.19-32.42-50.55-37.89l-.06.22c21.3,5.45,39.2,18.87,50.41,37.78,4.95,8.35,8.33,17.33,10.09,26.58.07-.03.15-.06.22-.08Z"/>
      <polygon class="cls-6" points="420.24 137.19 419.23 136.94 420.74 138.73 420.92 136.4 420.24 137.19"/>
    </g>
    <g>
      <path class="cls-6" d="m395.94,226.82c6.27-7.06,11.33-15.22,14.94-24.24,8.18-20.47,7.91-42.9-.78-63.17l-.21.09c8.66,20.21,8.94,42.58.78,62.99-3.6,9.01-8.66,17.16-14.92,24.2.07.04.13.08.2.13Z"/>
      <polygon class="cls-6" points="395.86 226.73 395.43 225.78 394.94 228.07 396.9 226.79 395.86 226.73"/>
    </g>
    <g>
      <path class="cls-6" d="m300.38,256.97c8.99,2.88,18.5,4.21,28.22,3.86,22.03-.79,42.44-10.12,57.46-26.26l-.17-.16c-14.98,16.09-35.33,25.39-57.3,26.18-9.7.35-19.2-.98-28.17-3.86,0,.08-.02.15-.04.23Z"/>
      <polygon class="cls-6" points="301.12 256.08 298.82 256.56 300.79 257.83 300.42 256.86 301.12 256.08"/>
    </g>
    <circle class="cls-6" cx="248.71" cy="130.48" r=".81"/>
    <circle class="cls-6" cx="253.25" cy="208.21" r=".81"/>
    <circle class="cls-6" cx="406.29" cy="223.07" r=".81"/>
    <circle class="cls-6" cx="273.75" cy="260.88" r=".81"/>
    <circle class="cls-6" cx="212.76" cy="173.22" r=".81"/>
    <circle class="cls-6" cx="378" cy="71.18" r=".81"/>
    <circle class="cls-6" cx="305.59" cy="84.49" r=".81"/>
  </g>
  <g>
    <circle class="cls-1" cx="379.35" cy="97.72" r="37.19"/>
    <g>
      <path class="cls-6" d="m421.28,99.23c.57-4.22.41-8.55-.51-12.84-2.09-9.73-7.84-18.06-16.19-23.46l-.06.09c8.33,5.39,14.06,13.69,16.15,23.39.92,4.28,1.08,8.61.5,12.82.04,0,.07,0,.11,0Z"/>
      <polygon class="cls-6" points="421.22 99.22 420.83 98.97 421.22 99.96 421.63 98.98 421.22 99.22"/>
    </g>
    <g>
      <path class="cls-6" d="m422.3,110.51c1.78-3.87,2.89-8.06,3.26-12.43.84-9.91-2.22-19.56-8.63-27.16l-.08.07c6.39,7.58,9.45,17.2,8.61,27.09-.37,4.36-1.48,8.55-3.26,12.41.03,0,.07.02.1.03Z"/>
      <polygon class="cls-6" points="422.25 110.49 421.95 110.14 422.03 111.19 422.71 110.38 422.25 110.49"/>
    </g>
    <g>
      <path class="cls-6" d="m419.28,105.7c-.61,4.21-1.96,8.33-4.03,12.2-4.69,8.77-12.51,15.2-22.03,18.08l-.03-.1c9.49-2.88,17.29-9.28,21.97-18.03,2.06-3.86,3.41-7.98,4.02-12.18.03.01.07.02.1.03Z"/>
      <polygon class="cls-6" points="419.55 106.04 419.42 104.99 418.77 105.83 419.22 105.7 419.55 106.04"/>
    </g>
    <g>
      <path class="cls-6" d="m361.79,60.14c3.74-2.03,7.85-3.41,12.19-4.07,9.84-1.49,19.66.94,27.67,6.84l-.06.08c-7.99-5.88-17.79-8.31-27.59-6.82-4.33.66-8.43,2.04-12.17,4.07-.01-.03-.02-.07-.04-.1Z"/>
      <polygon class="cls-6" points="361.82 60.19 361.9 59.73 361.13 60.45 362.19 60.47 361.82 60.19"/>
    </g>
    <g>
      <path class="cls-6" d="m366.25,141.31c3.95,1.6,8.18,2.52,12.56,2.69,9.94.39,19.44-3.12,26.74-9.87l-.07-.08c-7.28,6.74-16.75,10.23-26.66,9.85-4.37-.17-8.6-1.09-12.54-2.69,0,.03-.01.07-.02.1Z"/>
      <polygon class="cls-6" points="366.61 140.93 365.56 141.07 366.4 141.7 366.27 141.26 366.61 140.93"/>
    </g>
    <g>
      <path class="cls-6" d="m338.26,110.09c1.14,4.1,2.99,8.02,5.53,11.6,5.75,8.12,14.32,13.51,24.13,15.18l.02-.1c-9.78-1.67-18.32-7.04-24.06-15.14-2.53-3.57-4.38-7.49-5.52-11.58-.03.02-.06.03-.1.04Z"/>
      <polygon class="cls-6" points="338.77 110.15 338.03 109.4 338.04 110.46 338.31 110.08 338.77 110.15"/>
    </g>
    <g>
      <path class="cls-6" d="m350.24,66.5c-3.29,2.7-6.13,5.98-8.37,9.75-5.1,8.54-6.56,18.56-4.13,28.2l.1-.03c-2.43-9.62-.97-19.61,4.12-28.12,2.24-3.76,5.07-7.03,8.36-9.73-.03-.02-.05-.05-.08-.07Z"/>
      <polygon class="cls-6" points="349.82 66.44 350.28 66.54 350.4 66.99 350.78 66.01 349.82 66.44"/>
    </g>
    <circle class="cls-6" cx="410.83" cy="77.91" r=".36"/>
    <circle class="cls-6" cx="380.26" cy="60.58" r=".36"/>
    <circle class="cls-6" cx="337.14" cy="114.93" r=".36"/>
    <circle class="cls-6" cx="355.28" cy="55.45" r=".36"/>
    <circle class="cls-6" cx="403.44" cy="53.82" r=".36"/>
    <circle class="cls-6" cx="401.62" cy="141.42" r=".36"/>
    <circle class="cls-6" cx="414.32" cy="110.72" r=".36"/>
  </g>
  <g>
    <circle class="cls-2" cx="223.28" cy="288.41" r="67.75"/>
    <g>
      <path class="cls-6" d="m146.91,291.17c-1.04-7.69-.75-15.58.93-23.39,3.8-17.72,14.28-32.89,29.5-42.73l.1.16c-15.18,9.81-25.62,24.95-29.42,42.61-1.67,7.8-1.96,15.68-.92,23.35-.06,0-.13,0-.19,0Z"/>
      <polygon class="cls-6" points="147 291.15 146.27 290.71 147.02 292.49 147.73 290.7 147 291.15"/>
    </g>
    <g>
      <path class="cls-6" d="m145.04,311.72c-3.24-7.05-5.27-14.68-5.95-22.64-1.54-18.06,4.05-35.63,15.73-49.49l.15.12c-11.65,13.82-17.22,31.34-15.68,49.35.68,7.95,2.7,15.57,5.94,22.6-.06.01-.12.03-.18.05Z"/>
      <polygon class="cls-6" points="145.13 311.68 144.3 311.47 145.53 312.95 145.69 311.03 145.13 311.68"/>
    </g>
    <g>
      <path class="cls-6" d="m150.55,302.96c1.12,7.68,3.57,15.18,7.34,22.23,8.54,15.98,22.8,27.68,40.14,32.94l.06-.18c-17.29-5.25-31.51-16.91-40.02-32.85-3.76-7.03-6.21-14.53-7.32-22.19-.06.02-.12.04-.18.06Z"/>
      <polygon class="cls-6" points="151.47 303.18 150.29 301.66 150.06 303.57 150.65 302.95 151.47 303.18"/>
    </g>
    <g>
      <path class="cls-6" d="m255.28,219.96c-6.82-3.69-14.3-6.22-22.2-7.41-17.92-2.72-35.82,1.71-50.41,12.46l.11.15c14.55-10.72,32.4-15.13,50.27-12.42,7.89,1.2,15.36,3.72,22.17,7.41.02-.06.04-.12.07-.18Z"/>
      <polygon class="cls-6" points="256.47 220.53 255.08 219.2 255.23 220.04 254.55 220.56 256.47 220.53"/>
    </g>
    <g>
      <path class="cls-6" d="m247.16,367.82c-7.19,2.91-14.91,4.59-22.89,4.9-18.11.71-35.41-5.68-48.71-17.99l.13-.14c13.27,12.27,30.52,18.64,48.57,17.94,7.97-.31,15.67-1.99,22.85-4.9.01.06.03.13.04.19Z"/>
      <polygon class="cls-6" points="248.41 367.38 246.5 367.14 247.12 367.73 246.88 368.55 248.41 367.38"/>
    </g>
    <g>
      <path class="cls-6" d="m298.15,310.96c-2.07,7.48-5.45,14.61-10.07,21.13-10.48,14.79-26.09,24.61-43.95,27.65l-.03-.19c17.81-3.04,33.38-12.83,43.83-27.57,4.61-6.51,7.98-13.64,10.05-21.1.06.03.12.06.18.08Z"/>
      <polygon class="cls-6" points="297.2 311.07 298.05 310.94 298.55 311.63 298.56 309.7 297.2 311.07"/>
    </g>
    <g>
      <path class="cls-6" d="m276.31,231.54c6,4.92,11.16,10.89,15.26,17.75,9.29,15.56,11.96,33.81,7.52,51.38l-.18-.05c4.43-17.52,1.76-35.72-7.5-51.23-4.09-6.85-9.24-12.81-15.24-17.72.05-.04.1-.08.14-.13Z"/>
      <polygon class="cls-6" points="277.09 231.44 275.33 230.65 276.03 232.44 276.25 231.62 277.09 231.44"/>
    </g>
    <circle class="cls-6" cx="165.94" cy="252.32" r=".66"/>
    <circle class="cls-6" cx="221.62" cy="220.76" r=".66"/>
    <circle class="cls-6" cx="300.18" cy="319.77" r=".66"/>
    <circle class="cls-6" cx="267.13" cy="211.41" r=".66"/>
    <circle class="cls-6" cx="179.4" cy="208.44" r=".66"/>
    <circle class="cls-6" cx="182.71" cy="368.03" r=".66"/>
    <circle class="cls-6" cx="159.58" cy="312.11" r=".66"/>
  </g>
  <g>
    <circle class="cls-4" cx="323.62" cy="161.2" r="95.13"/>
    <g>
      <path class="cls-6" d="m328.49,268.4c10.88.58,21.89-.73,32.63-3.97,24.36-7.35,44.4-23.75,56.43-46.17l-.23-.13c-11.99,22.36-31.98,38.71-56.27,46.04-10.72,3.24-21.72,4.54-32.58,3.96.01.09.02.18.03.27Z"/>
      <polygon class="cls-6" points="328.51 268.26 329.06 267.2 326.64 268.4 329.2 269.24 328.51 268.26"/>
    </g>
    <g>
      <path class="cls-6" d="m299.94,273.37c10.23,3.73,21.15,5.69,32.37,5.73,25.45.09,49.4-9.74,67.46-27.68l-.19-.19c-18,17.88-41.89,27.68-67.27,27.6-11.2-.04-22.1-2-32.31-5.73-.01.09-.03.18-.05.26Z"/>
      <polygon class="cls-6" points="300.83 272.38 298.17 272.82 300.38 274.37 299.99 273.24 300.83 272.38"/>
    </g>
    <g>
      <path class="cls-6" d="m311.58,264.66c-10.87-.69-21.66-3.26-31.95-7.73-23.35-10.12-41.35-28.73-50.7-52.4l.25-.1c9.32,23.6,27.28,42.16,50.56,52.25,10.27,4.46,21.04,7.02,31.9,7.71-.02.09-.04.17-.06.26Z"/>
      <polygon class="cls-6" points="313.43 264.87 311.16 263.39 311.59 264.52 310.78 265.41 313.43 264.87"/>
    </g>
    <g>
      <path class="cls-6" d="m415.75,108.58c5.95,9.12,10.34,19.31,12.92,30.22,5.85,24.76,1.71,50.32-11.67,71.97l-.23-.14c13.34-21.59,17.47-47.08,11.63-71.77-2.58-10.9-6.96-21.07-12.9-30.17.08-.03.17-.07.25-.11Z"/>
      <polygon class="cls-6" points="416.83 108.78 414.82 106.98 414.99 109.68 415.64 108.66 416.83 108.78"/>
    </g>
    <g>
      <path class="cls-6" d="m209.75,136.87c-3.25,10.4-4.72,21.39-4.24,32.59,1.08,25.42,12,48.9,30.75,66.11l.18-.2c-18.69-17.16-29.58-40.58-30.66-65.93-.48-11.19.98-22.16,4.24-32.54-.09,0-.18-.02-.27-.04Z"/>
      <polygon class="cls-6" points="210.78 137.72 210.22 135.07 208.77 137.35 209.88 136.92 210.78 137.72"/>
    </g>
    <g>
      <path class="cls-6" d="m283.49,59.01c-10.22,3.76-19.83,9.3-28.42,16.51-19.49,16.36-31.45,39.32-33.67,64.67l.27.02c2.21-25.28,14.13-48.18,33.57-64.49,8.58-7.2,18.17-12.73,28.38-16.48-.05-.08-.09-.16-.13-.24Z"/>
      <polygon class="cls-6" points="285.2 58.28 282.51 58.52 283.53 59.14 283.45 60.34 285.2 58.28"/>
    </g>
    <g>
      <path class="cls-6" d="m397.14,80.48c-7.57-7.83-16.52-14.38-26.59-19.32-22.84-11.21-48.68-12.86-72.76-4.64l.09.25c24.01-8.2,49.78-6.55,72.56,4.63,10.05,4.94,18.99,11.47,26.55,19.29.05-.07.11-.15.16-.21Z"/>
      <polygon class="cls-6" points="397.19 79.38 397.04 80.57 395.91 80.97 398.5 81.74 397.19 79.38"/>
    </g>
    <circle class="cls-6" cx="380.68" cy="237.31" r=".93"/>
    <circle class="cls-6" cx="418.48" cy="155.78" r=".93"/>
    <circle class="cls-6" cx="270.93" cy="57.18" r=".93"/>
    <circle class="cls-6" cx="426.36" cy="91.02" r=".93"/>
    <circle class="cls-6" cx="440.56" cy="213.46" r=".93"/>
    <circle class="cls-6" cx="216.83" cy="227.09" r=".93"/>
    <circle class="cls-6" cx="297.74" cy="253.06" r=".93"/>
  </g>
</svg>